# xmcd CD database file
#
# Track frame offsets:
#	150
#	23292
#	41732
#	69190
#
# Disc length: 1226 seconds
#
# Revision: 0
# Processed by: cddbd v1.5.1PL0 Copyright (c) Steve Scherf et al.
# Submitted via: CDex 1.51
#
DISCID=2304c804
DTITLE=上戸彩 - 愛のために。
DYEAR=1900
DGENRE=J-Pop
TTITLE0=愛のために。
TTITLE1=アリガト
TTITLE2=微熱(1980 BOOGIE STYLE)
TTITLE3=愛のために。(instrumental)
EXTD=
EXTT0=
EXTT1=
EXTT2=
EXTT3=
PLAYORDER=
